<?xml version="1.0" encoding="utf-8"?>
<!-- Generator: Adobe Illustrator 25.2.3, SVG Export Plug-In . SVG Version: 6.00 Build 0)  -->
<svg version="1.1" xmlns="http://www.w3.org/2000/svg" xmlns:xlink="http://www.w3.org/1999/xlink" x="0px" y="0px"
	 viewBox="0 0 200 200" style="enable-background:new 0 0 200 200;" xml:space="preserve">
<style type="text/css">
	.st0{fill:#E7FFFF;}
	.st1{fill:#2E3192;}
	.st2{fill:#FFFFFF;}
	.st3{fill:#662D91;}
	.st4{fill:#7AC943;}
	.st5{fill:#FBB03B;}
	.st6{fill:#FFFFFF;stroke:#1A1A1A;stroke-miterlimit:10;}
	.st7{opacity:0.87;}
	.st8{fill:#2E3192;stroke:#1A1A1A;stroke-miterlimit:10;}
	.st9{fill:#FCEE21;}
	.st10{fill:#FF1D25;}
</style>
<g id="レイヤー_2">
	<g>
		<circle class="st0" cx="40.3" cy="36.67" r="26"/>
		<path class="st1" d="M35.55,45.78c-8.64-3.69-15.98-8.56-20.25-16.17c-3.52,12.4,2.62,25.77,14.79,30.97
			c12.6,5.38,27.07,0.02,33.27-11.96C54.34,51.47,44.93,49.78,35.55,45.78z"/>
		<path class="st2" d="M59.43,36.15c-1.65,0.54-2.59-2.87-3.94-7s-2.6-7.44-0.94-7.98c1.65-0.54,5.59,1.89,6.93,6.03
			C62.84,31.33,61.09,35.61,59.43,36.15z"/>
		<circle class="st2" cx="52.27" cy="18.66" r="1.58"/>
		<circle class="st0" cx="40.3" cy="36.67" r="26"/>
		<path class="st1" d="M35.55,45.78c-8.64-3.69-15.98-8.56-20.25-16.17c-3.52,12.4,2.62,25.77,14.79,30.97
			c12.6,5.38,27.07,0.02,33.27-11.96C54.34,51.47,44.93,49.78,35.55,45.78z"/>
		<path class="st2" d="M59.43,36.15c-1.65,0.54-2.59-2.87-3.94-7s-2.6-7.44-0.94-7.98c1.65-0.54,5.59,1.89,6.93,6.03
			C62.84,31.33,61.09,35.61,59.43,36.15z"/>
		<circle class="st2" cx="52.27" cy="18.66" r="1.58"/>
		<circle class="st0" cx="40.3" cy="36.67" r="26"/>
		<path class="st1" d="M35.55,45.78c-8.64-3.69-15.98-8.56-20.25-16.17c-3.52,12.4,2.62,25.77,14.79,30.97
			c12.6,5.38,27.07,0.02,33.27-11.96C54.34,51.47,44.93,49.78,35.55,45.78z"/>
		<path class="st2" d="M59.43,36.15c-1.65,0.54-2.59-2.87-3.94-7s-2.6-7.44-0.94-7.98c1.65-0.54,5.59,1.89,6.93,6.03
			C62.84,31.33,61.09,35.61,59.43,36.15z"/>
		<circle class="st2" cx="52.27" cy="18.66" r="1.58"/>
		<circle class="st0" cx="40.3" cy="36.67" r="26"/>
		<path class="st1" d="M35.55,45.78c-8.64-3.69-15.98-8.56-20.25-16.17c-3.52,12.4,2.62,25.77,14.79,30.97
			c12.6,5.38,27.07,0.02,33.27-11.96C54.34,51.47,44.93,49.78,35.55,45.78z"/>
		<path class="st2" d="M59.43,36.15c-1.65,0.54-2.59-2.87-3.94-7s-2.6-7.44-0.94-7.98c1.65-0.54,5.59,1.89,6.93,6.03
			C62.84,31.33,61.09,35.61,59.43,36.15z"/>
		<circle class="st2" cx="52.27" cy="18.66" r="1.58"/>
	</g>
	<g>
		<circle class="st0" cx="153.5" cy="83.5" r="16.5"/>
		<path class="st3" d="M153.88,90.01c-5.91,0.8-11.49,0.54-16.3-2.22c2.12,7.9,9.82,13.19,18.14,12.06
			c8.62-1.17,14.76-8.8,14.23-17.35C165.97,86.99,160.29,89.14,153.88,90.01z"/>
		<path class="st2" d="M163.76,76.98c-0.73,0.83-2.34-0.72-4.43-2.53c-2.08-1.82-3.84-3.21-3.11-4.04s3.66-0.79,5.74,1.03
			C164.04,73.25,164.48,76.15,163.76,76.98z"/>
		<circle class="st2" cx="154.16" cy="69.79" r="1"/>
		<circle class="st0" cx="153.5" cy="83.5" r="16.5"/>
		<path class="st3" d="M153.88,90.01c-5.91,0.8-11.49,0.54-16.3-2.22c2.12,7.9,9.82,13.19,18.14,12.06
			c8.62-1.17,14.76-8.8,14.23-17.35C165.97,86.99,160.29,89.14,153.88,90.01z"/>
		<path class="st2" d="M163.76,76.98c-0.73,0.83-2.34-0.72-4.43-2.53c-2.08-1.82-3.84-3.21-3.11-4.04s3.66-0.79,5.74,1.03
			C164.04,73.25,164.48,76.15,163.76,76.98z"/>
		<circle class="st2" cx="154.16" cy="69.79" r="1"/>
		<circle class="st0" cx="153.5" cy="83.5" r="16.5"/>
		<path class="st3" d="M153.88,90.01c-5.91,0.8-11.49,0.54-16.3-2.22c2.12,7.9,9.82,13.19,18.14,12.06
			c8.62-1.17,14.76-8.8,14.23-17.35C165.97,86.99,160.29,89.14,153.88,90.01z"/>
		<path class="st2" d="M163.76,76.98c-0.73,0.83-2.34-0.72-4.43-2.53c-2.08-1.82-3.84-3.21-3.11-4.04s3.66-0.79,5.74,1.03
			C164.04,73.25,164.48,76.15,163.76,76.98z"/>
		<circle class="st2" cx="154.16" cy="69.79" r="1"/>
		<circle class="st0" cx="153.5" cy="83.5" r="16.5"/>
		<path class="st3" d="M153.88,90.01c-5.91,0.8-11.49,0.54-16.3-2.22c2.12,7.9,9.82,13.19,18.14,12.06
			c8.62-1.17,14.76-8.8,14.23-17.35C165.97,86.99,160.29,89.14,153.88,90.01z"/>
		<path class="st2" d="M163.76,76.98c-0.73,0.83-2.34-0.72-4.43-2.53c-2.08-1.82-3.84-3.21-3.11-4.04s3.66-0.79,5.74,1.03
			C164.04,73.25,164.48,76.15,163.76,76.98z"/>
		<circle class="st2" cx="154.16" cy="69.79" r="1"/>
	</g>
	<g>
		<circle class="st0" cx="55.5" cy="108.5" r="16.5"/>
		<path class="st3" d="M51.07,113.29c-4.68-3.7-8.36-7.91-9.7-13.28c-4.22,7.01-2.7,16.22,3.89,21.43
			c6.82,5.4,16.58,4.53,22.37-1.77C61.63,119.91,56.15,117.3,51.07,113.29z"/>
		<path class="st2" d="M67.31,111.37c-1.1,0.05-1.11-2.19-1.24-4.95c-0.13-2.76-0.35-4.99,0.76-5.04c1.1-0.05,3.11,2.09,3.24,4.85
			C70.19,108.99,68.41,111.32,67.31,111.37z"/>
		<circle class="st2" cx="65.84" cy="99.47" r="1"/>
		<circle class="st0" cx="55.5" cy="108.5" r="16.5"/>
		<path class="st3" d="M51.07,113.29c-4.68-3.7-8.36-7.91-9.7-13.28c-4.22,7.01-2.7,16.22,3.89,21.43
			c6.82,5.4,16.58,4.53,22.37-1.77C61.63,119.91,56.15,117.3,51.07,113.29z"/>
		<path class="st2" d="M67.31,111.37c-1.1,0.05-1.11-2.19-1.24-4.95c-0.13-2.76-0.35-4.99,0.76-5.04c1.1-0.05,3.11,2.09,3.24,4.85
			C70.19,108.99,68.41,111.32,67.31,111.37z"/>
		<circle class="st2" cx="65.84" cy="99.47" r="1"/>
		<circle class="st0" cx="55.5" cy="108.5" r="16.5"/>
		<path class="st3" d="M51.07,113.29c-4.68-3.7-8.36-7.91-9.7-13.28c-4.22,7.01-2.7,16.22,3.89,21.43
			c6.82,5.4,16.58,4.53,22.37-1.77C61.63,119.91,56.15,117.3,51.07,113.29z"/>
		<path class="st2" d="M67.31,111.37c-1.1,0.05-1.11-2.19-1.24-4.95c-0.13-2.76-0.35-4.99,0.76-5.04c1.1-0.05,3.11,2.09,3.24,4.85
			C70.19,108.99,68.41,111.32,67.31,111.37z"/>
		<circle class="st2" cx="65.84" cy="99.47" r="1"/>
		<circle class="st0" cx="55.5" cy="108.5" r="16.5"/>
		<path class="st4" d="M51.07,113.29c-4.68-3.7-8.36-7.91-9.7-13.28c-4.22,7.01-2.7,16.22,3.89,21.43
			c6.82,5.4,16.58,4.53,22.37-1.77C61.63,119.91,56.15,117.3,51.07,113.29z"/>
		<path class="st2" d="M67.31,111.37c-1.1,0.05-1.11-2.19-1.24-4.95c-0.13-2.76-0.35-4.99,0.76-5.04c1.1-0.05,3.11,2.09,3.24,4.85
			C70.19,108.99,68.41,111.32,67.31,111.37z"/>
		<circle class="st2" cx="65.84" cy="99.47" r="1"/>
	</g>
	<g>
		<circle class="st0" cx="165.5" cy="167.5" r="28.49"/>
		<path class="st3" d="M160.75,177.71c-9.65-3.61-17.93-8.58-22.97-16.7c-3.24,13.75,4.15,28.09,17.73,33.17
			c14.07,5.27,29.65-1.32,35.84-14.75C181.61,183.01,171.22,181.63,160.75,177.71z"/>
		<path class="st2" d="M186.43,165.98c-1.79,0.67-2.98-3.01-4.66-7.47c-1.68-4.46-3.21-8.02-1.43-8.69
			c1.79-0.67,6.21,1.79,7.89,6.26C189.91,160.53,188.21,165.31,186.43,165.98z"/>
		<circle class="st2" cx="177.72" cy="147.18" r="1.73"/>
		<circle class="st0" cx="165.5" cy="167.5" r="28.49"/>
		<path class="st3" d="M160.75,177.71c-9.65-3.61-17.93-8.58-22.97-16.7c-3.24,13.75,4.15,28.09,17.73,33.17
			c14.07,5.27,29.65-1.32,35.84-14.75C181.61,183.01,171.22,181.63,160.75,177.71z"/>
		<path class="st2" d="M186.43,165.98c-1.79,0.67-2.98-3.01-4.66-7.47c-1.68-4.46-3.21-8.02-1.43-8.69
			c1.79-0.67,6.21,1.79,7.89,6.26C189.91,160.53,188.21,165.31,186.43,165.98z"/>
		<circle class="st2" cx="177.72" cy="147.18" r="1.73"/>
		<circle class="st0" cx="165.5" cy="167.5" r="28.49"/>
		<path class="st3" d="M160.75,177.71c-9.65-3.61-17.93-8.58-22.97-16.7c-3.24,13.75,4.15,28.09,17.73,33.17
			c14.07,5.27,29.65-1.32,35.84-14.75C181.61,183.01,171.22,181.63,160.75,177.71z"/>
		<path class="st2" d="M186.43,165.98c-1.79,0.67-2.98-3.01-4.66-7.47c-1.68-4.46-3.21-8.02-1.43-8.69
			c1.79-0.67,6.21,1.79,7.89,6.26C189.91,160.53,188.21,165.31,186.43,165.98z"/>
		<circle class="st2" cx="177.72" cy="147.18" r="1.73"/>
		<circle class="st0" cx="165.5" cy="167.5" r="28.49"/>
		<path class="st5" d="M160.75,177.71c-9.65-3.61-17.93-8.58-22.97-16.7c-3.24,13.75,4.15,28.09,17.73,33.17
			c14.07,5.27,29.65-1.32,35.84-14.75C181.61,183.01,171.22,181.63,160.75,177.71z"/>
		<path class="st2" d="M186.43,165.98c-1.79,0.67-2.98-3.01-4.66-7.47c-1.68-4.46-3.21-8.02-1.43-8.69
			c1.79-0.67,6.21,1.79,7.89,6.26C189.91,160.53,188.21,165.31,186.43,165.98z"/>
		<circle class="st2" cx="177.72" cy="147.18" r="1.73"/>
	</g>
</g>
<g id="レイヤー_1">
	<g>
		<path class="st6" d="M5.73,59.31c7.68,5.04,16.87,6.48,24.95,3.24c2.82-5.24,7.73-9.33,13.95-10.89L167.1,20.99
			c11.74-2.94,23.64,4.19,26.57,15.93l2.69,10.75c2.94,11.74-4.19,23.64-15.93,26.57L57.97,104.92
			c-11.74,2.94-23.64-4.19-26.57-15.93L28.7,78.24c-0.43-1.73-0.62-3.47-0.64-5.18C19.68,72.06,11.44,67.15,5.73,59.31z"/>
		<g class="st7">
			<path d="M113.96,75.69c-5.69,1.42-11.25,2.82-16.87,4.23c-0.48-1.92-0.94-3.77-1.44-5.76c3.62-0.91,7.18-1.8,10.81-2.71
				c-1.29-5.14-2.54-10.14-3.81-15.21c-3.39,0.85-6.73,1.68-10.22,2.56c0.7,2.78,1.39,5.53,2.1,8.39c-1.59,0.4-3.01,0.77-4.44,1.09
				c-0.21,0.05-0.49-0.22-0.73-0.34c0.2-0.2,0.36-0.51,0.59-0.58c1.08-0.32,2.17-0.56,3.4-0.87c-0.59-2.34-1.15-4.58-1.71-6.81
				c-0.19-0.75-0.42-1.49-0.54-2.25c-0.06-0.34,0.1-0.71,0.16-1.07c0.25,0.25,0.51,0.5,0.73,0.77c0.1,0.12,0.12,0.31,0.25,0.66
				c5.39-1.35,10.79-2.7,16.23-4.06C110.31,61.14,112.12,68.36,113.96,75.69z"/>
			<path d="M173.42,56.41c0.3,1.18,0.54,2.16,0.82,3.27c2.67-0.67,5.29-1.33,7.91-1.98c0.08,0.1,0.15,0.2,0.23,0.3
				c-0.17,0.25-0.31,0.67-0.53,0.73c-2.73,0.73-5.48,1.4-8.34,2.12c-1.08-4.31-2.13-8.49-3.22-12.86c-1.68,0.42-3.24,0.84-4.82,1.18
				c-0.33,0.07-0.72-0.13-1.08-0.21c0.28-0.21,0.53-0.54,0.84-0.62c1.86-0.51,3.74-0.96,5.72-1.45c0.33,1.31,0.62,2.46,0.93,3.7
				c2.23-0.56,4.36-1.09,6.56-1.64c-0.94-3.74-1.87-7.46-2.84-11.32c-0.72,0.18-1.42,0.36-2.13,0.53
				c-3.92,0.98-7.84,1.97-11.77,2.93c-0.29,0.07-0.64-0.14-0.97-0.22c0.22-0.22,0.41-0.56,0.67-0.63c6.52-1.65,13.04-3.28,19.56-4.9
				c0.11-0.03,0.23,0,0.44,0c1.49,5.94,2.98,11.89,4.5,17.96C181.79,54.31,177.67,55.35,173.42,56.41z"/>
			<path d="M59.86,73.76c0.5,2.01,0.95,3.79,1.39,5.56c-0.09,0.09-0.18,0.18-0.27,0.27c-0.25-0.26-0.64-0.48-0.74-0.79
				c-0.37-1.22-0.64-2.47-0.97-3.78c-3.63,0.91-7.16,1.79-10.83,2.71c1.11,4.43,2.23,8.9,3.37,13.45c-2.07,0.52-4,1-6,1.5
				c-1.96-7.83-3.9-15.58-5.87-23.42c1.95-0.49,3.86-0.97,5.89-1.48c0.73,2.91,1.46,5.84,2.23,8.92
				C52.06,75.71,55.91,74.75,59.86,73.76z"/>
			<path d="M129.83,56.52c1.21,4.82,2.38,9.49,3.57,14.24c-4.75,1.19-9.37,2.35-14.07,3.52c-0.48-1.91-0.94-3.75-1.43-5.72
				c2.66-0.67,5.28-1.32,7.97-2c-0.72-2.88-1.41-5.63-2.13-8.52c-3.38,0.85-6.72,1.68-10.05,2.52c-0.47-1.13,0.33-1.03,0.77-1.14
				c4.67-1.19,9.35-2.35,14.02-3.52c1.77-0.44,3.54-0.91,5.32-1.31c0.26-0.06,0.59,0.16,0.88,0.25c-0.23,0.21-0.42,0.53-0.68,0.61
				C132.66,55.83,131.31,56.15,129.83,56.52z"/>
			<path d="M131.32,48.36c-0.29,0.1-0.57,0.22-0.86,0.29c-5.35,1.34-10.7,2.69-16.06,4.01c-0.33,0.08-0.73-0.12-1.09-0.18
				c0.28-0.24,0.53-0.62,0.85-0.71c5.35-1.37,10.7-2.71,16.06-4.02c0.34-0.08,0.75,0.12,1.13,0.19
				C131.34,48.07,131.33,48.21,131.32,48.36z"/>
			<path d="M75.69,71.71c-3.09,0.77-6.18,1.55-9.27,2.32c-0.23,0.06-0.46,0.18-0.68,0.15c-0.25-0.03-0.5-0.18-0.75-0.28
				c0.2-0.19,0.38-0.41,0.59-0.57c0.12-0.09,0.3-0.09,0.45-0.12c6.29-1.58,12.59-3.15,18.88-4.73c0.23-0.06,0.46-0.17,0.68-0.15
				c0.22,0.03,0.43,0.2,0.65,0.31c-0.16,0.18-0.3,0.42-0.49,0.53c-0.23,0.13-0.52,0.15-0.78,0.22
				C81.88,70.16,78.78,70.93,75.69,71.71z"/>
			<path d="M148.96,53.35c-3.2,0.8-6.4,1.62-9.62,2.39c-0.31,0.07-0.67-0.1-1.01-0.16c0.25-0.23,0.47-0.58,0.75-0.66
				c6.48-1.65,12.96-3.27,19.45-4.87c0.31-0.08,0.68,0.1,1.02,0.16c-0.29,0.23-0.55,0.6-0.88,0.68
				C155.44,51.74,152.2,52.54,148.96,53.35z"/>
		</g>
	</g>
	<path class="st8" d="M192.12,79.46c-4.67,8.56-12.56,14.52-21.75,15.53c-5.26-3.5-11.91-4.87-18.52-3.21L21.76,124.37
		C9.3,127.49,1.72,140.13,4.84,152.6l4.86,19.42c3.12,12.47,15.76,20.04,28.23,16.92l130.09-32.59
		c12.47-3.12,20.04-15.76,16.92-28.23l-4.86-19.42c-0.46-1.84-1.15-3.56-2-5.17C185.44,98.4,190.7,89.67,192.12,79.46z"/>
	<path class="st2" d="M94.65,137.73c-7.21,1.81-14.2,3.56-21.27,5.33c-1.13-1.91,0.33-2.01,1.42-2.29
		c5.75-1.45,11.51-2.89,17.26-4.34c0.66-0.17,1.3-0.39,2.1-0.64c-1.11-4.44-2.2-8.8-3.38-13.49c-5.71,1.43-11.41,2.86-17.11,4.28
		c-0.16-0.32-0.32-0.64-0.48-0.95c0.8-0.47,1.54-1.17,2.4-1.39c10.08-2.58,20.17-5.09,30.26-7.62c0.98-0.25,1.96-0.49,2.8-0.7
		c0.14-0.44,0.21-0.6,0.24-0.76c0.17-0.95,0.33-1.9,0.49-2.85c0.57,0.86,1.23,1.68,1.69,2.6c0.28,0.57,0.26,1.29,0.4,2.14
		c-2.34,0.59-4.56,1.14-7.02,1.76c1.14,4.54,2.23,8.89,3.35,13.36c3.65-0.63,7.37-1.28,11.09-1.88c0.07-0.01,0.23,0.58,0.45,1.18
		c-3.71,0.93-7.32,1.83-11.27,2.82c0.66,2.65,1.26,5.03,1.86,7.41c1.44,5.74,2.86,11.48,4.32,17.22c0.32,1.25,0.59,2.26-1.2,2.69
		c-9.27,2.25-18.52,4.6-27.78,6.9c-0.32,0.08-0.66,0.03-1.13,0.04c-0.94-3.75-1.86-7.45-2.86-11.4c5.75-1.44,11.38-2.85,17.15-4.3
		C97.16,147.77,95.95,142.91,94.65,137.73z"/>
	<path class="st2" d="M158.09,136.17c4.21-1.06,8.42-2.11,12.73-3.19c-1.6-6.41-3.14-12.52-4.71-18.78
		c-6.36,1.59-12.58,3.15-19.15,4.8c2.65,10.58,5.3,21.17,8,31.92c-4.46,1.12-8.57,2.15-12.9,3.23c-2.68-10.71-5.32-21.24-8.03-32.05
		c-1.84,0.46-3.47,0.87-5.5,1.38c0.31-3.48,3.55-2,4.89-3.82c-0.4-1.58-0.86-3.45-1.36-5.44c4.32-1.08,8.38-2.1,12.73-3.19
		c0.47,1.89,0.94,3.76,1.49,5.93c7.25-1.82,14.2-3.56,21.53-5.39c0.42,1.68,0.77,3.07,1.11,4.45c1.35,5.41,2.67,10.83,4.09,16.22
		c0.38,1.46,0.12,2.19-1.46,2.55c-3.77,0.85-7.5,1.9-11.27,2.75c-0.68,0.15-1.48-0.23-2.23-0.36
		C158.06,136.84,158.07,136.51,158.09,136.17z"/>
	<path class="st2" d="M25.65,144.56c-1.68,0.42-3.22,0.88-4.8,1.16c-0.52,0.09-1.13-0.27-1.7-0.42c0.44-0.48,0.79-1.21,1.33-1.4
		c1.45-0.51,2.97-0.8,4.76-1.24c-0.71-2.85-1.39-5.55-2.1-8.39c4.49-1.13,8.7-2.18,13.23-3.31c0.68,2.71,1.35,5.4,2.1,8.37
		c8.27-2.07,16.22-4.06,24.31-6.09c3.25,12.97,6.43,25.65,9.6,38.32c-4.04,2.24-11.74,3.49-12.75,1.82
		c3.43-0.86,6.79-1.7,10.35-2.59c-2.95-11.77-5.83-23.27-8.75-34.95c-7.29,1.83-14.57,3.65-22.14,5.55
		c3.04,12.15,6.07,24.24,9.14,36.49c-6.68,1.67-13.07,3.27-19.7,4.93c-0.94-3.75-1.88-7.5-2.89-11.54c2.11-0.53,4.15-1.04,6.32-1.58
		C29.82,161.21,27.77,153.03,25.65,144.56z"/>
	<path d="M60.95,125.75c0.34,1.84-0.33,3.07-2.13,3.51c-1.84,0.45-3.01-0.48-3.42-2.19c-0.4-1.64,0.35-2.85,2.01-3.3
		C59.21,123.29,60.35,124.1,60.95,125.75z"/>
	<path d="M49.62,131.6c-1.75,0.23-2.89-0.6-3.25-2.36c-0.34-1.69,0.48-2.85,2.12-3.24c1.79-0.43,3.02,0.39,3.44,2.16
		C52.35,129.99,51.46,131.08,49.62,131.6z"/>
	<g>
		<circle class="st0" cx="47.5" cy="128.73" r="6.37"/>
		<path class="st9" d="M47.7,131.24c-2.28,0.36-4.43,0.3-6.31-0.72c0.88,3.03,3.9,5.01,7.1,4.51c3.32-0.52,5.63-3.52,5.36-6.81
			C52.34,129.97,50.17,130.85,47.7,131.24z"/>
		<path class="st2" d="M51.41,126.13c-0.27,0.33-0.91-0.26-1.73-0.94c-0.82-0.68-1.51-1.21-1.23-1.54c0.27-0.33,1.41-0.33,2.22,0.35
			C51.49,124.69,51.68,125.8,51.41,126.13z"/>
		<circle class="st2" cx="47.64" cy="123.43" r="0.39"/>
	</g>
	<g>
		<circle class="st0" cx="60.47" cy="124.37" r="6.37"/>
		<path class="st10" d="M62.69,125.56c-0.93,2.11-2.14,3.89-4.02,4.92c3.03,0.89,6.32-0.57,7.63-3.54c1.35-3.08,0.08-6.64-2.84-8.19
			C64.14,120.97,63.7,123.27,62.69,125.56z"/>
		<path class="st2" d="M60.4,119.68c0.13,0.41-0.71,0.63-1.73,0.95s-1.83,0.62-1.96,0.21c-0.13-0.41,0.48-1.36,1.5-1.68
			C59.22,118.84,60.27,119.27,60.4,119.68z"/>
		<circle class="st2" cx="56.09" cy="121.39" r="0.39"/>
	</g>
</g>
</svg>
